<svg width="122" height="122" viewBox="0 0 122 122" fill="none" xmlns="http://www.w3.org/2000/svg">
<circle cx="61" cy="61" r="61" fill="#BC6BFF"/>
<g clip-path="url(#clip0_7_155)">
<path d="M71.528 99.9787C71.34 99.9787 71.0893 99.9787 70.9013 99.9787C70.6507 99.8533 70.4 99.728 70.1493 99.6653C55.6733 94.84 41.1973 90.0147 26.7213 85.1893C26.3453 85.064 26.032 84.8133 25.656 84.688C27.912 85.0013 30.2307 85.3147 32.4867 85.5653C36.372 86.004 40.1947 86.4427 44.08 86.8813C47.9653 87.32 51.8507 87.7587 55.736 88.26C59.684 88.6987 63.5693 89.2 67.5173 89.6387C68.708 89.764 69.9613 89.8893 71.152 90.0147C71.152 71.2147 71.152 52.54 71.152 33.8653C60.9373 35.5573 50.848 37.2493 40.6333 38.9413C40.6333 39.3173 40.6333 39.6307 40.6333 39.944C40.6333 52.8533 40.6333 65.7627 40.6333 78.672C40.6333 79.424 40.3827 79.7373 39.6933 79.988C34.9933 81.492 30.2933 83.1213 25.656 84.688C25.5933 84.4373 25.4053 84.2493 25.4053 83.9987C25.4053 68.332 25.4053 52.728 25.4053 37.0613C25.4053 36.4973 25.5933 36.2467 26.032 36.0587C40.884 30.2933 55.736 24.528 70.588 18.7627C70.964 18.6373 71.4027 18.6373 71.7787 18.7C79.8 21.0813 87.8213 23.5253 95.8427 25.9067C96.4067 26.0947 96.5947 26.3453 96.5947 26.972C96.5947 48.4667 96.5947 70.024 96.5947 91.5187C96.5947 92.1453 96.4067 92.396 95.78 92.584C89.7013 94.4013 83.6227 96.2187 77.544 98.036C75.5387 98.7253 73.5333 99.352 71.528 99.9787Z" fill="white"/>
</g>
<defs>
<clipPath id="clip0_7_155">
<rect width="94" height="94" fill="white" transform="translate(14 14)"/>
</clipPath>
</defs>
</svg>
