<svg width="122" height="122" viewBox="0 0 122 122" fill="none" xmlns="http://www.w3.org/2000/svg">
<circle cx="61" cy="61" r="61" fill="#04D94D"/>
<g clip-path="url(#clip0_7_141)">
<path d="M103.927 73.7213C103.801 74.348 103.676 74.9747 103.488 75.6013C101.671 82.7453 95.6547 87.5707 88.1973 87.5707C70.964 87.6333 53.7307 87.6333 36.4973 87.5707C27.2853 87.5707 19.8907 81.1787 18.2613 72.1547C16.5693 62.3787 23.588 52.54 33.4267 51.036C35.3693 50.7227 37.2493 50.66 39.192 51.036C39.756 51.0987 39.8813 50.848 40.0693 50.472C42.1373 46.148 45.5213 43.4533 50.1587 42.388C53.0413 41.7613 55.8613 42.012 58.6813 43.2027C61.4387 38.816 65.2613 35.996 70.2747 34.868C73.972 33.9907 77.6067 34.304 81.116 35.6827C85.252 37.3747 88.448 40.1947 90.516 44.1427C92.584 48.0907 93.0853 52.2893 92.2707 56.676C92.8973 56.9267 93.524 57.052 94.1507 57.3027C99.6027 59.6213 102.861 63.7573 103.864 69.5853C103.864 69.7733 103.989 69.8987 104.052 70.024C103.927 71.2773 103.927 72.5307 103.927 73.7213ZM62.1907 82.1187C70.1493 82.1187 78.0453 82.1187 86.004 82.1187C92.1453 82.1187 97.096 77.0427 97.096 70.8387C97.0333 65.3867 93.0853 60.7493 87.696 59.872C86.192 59.6213 85.7533 58.8693 86.192 57.3653C86.756 55.4227 86.8813 53.48 86.6307 51.4747C85.7533 45.2707 80.6147 40.2573 74.4733 39.8187C68.52 39.4427 64.008 41.9493 61.1253 47.1507C60.3733 48.404 59.7467 48.6547 58.4933 48.028C57.1773 47.3387 55.7987 46.9 54.3573 46.9C49.532 46.7747 45.772 49.4067 44.2053 54.044C43.8293 55.172 43.2027 55.548 42.012 55.2347C40.132 54.7333 38.252 54.7333 36.372 54.984C28.9147 56.0493 23.6507 63.632 25.2173 71.0267C26.6587 77.732 32.048 82.1187 38.816 82.1187C46.5867 82.1187 54.42 82.1187 62.1907 82.1187Z" fill="white"/>
<path d="M61.1253 77.6693C59.6213 77.6693 58.1173 77.6693 56.6133 77.6693C56.6133 77.6067 56.6133 77.544 56.6133 77.4813C56.9893 76.04 57.3653 74.6613 57.7413 73.22C58.4307 70.5253 59.1827 67.8307 59.872 65.1987C60.248 63.6947 60.6867 62.2533 61.0627 60.7493C61.4387 59.2453 61.8773 57.7413 62.2533 56.3C62.4413 55.6107 62.6293 54.9213 62.8173 54.232C63.1307 53.2293 64.1333 52.4147 65.2613 52.4773C66.2013 52.4773 67.204 52.4773 68.144 52.4773C68.9587 52.4773 69.7107 52.4773 70.5253 52.4773C71.528 52.4773 72.5307 52.4147 73.5333 52.6027C74.912 52.8533 76.1027 53.3547 77.2307 54.1693C78.2333 54.9213 79.1107 55.7987 79.8 56.9267C80.4893 58.1173 80.928 59.3707 81.116 60.6867C81.116 60.8747 81.1787 61.0627 81.1787 61.3133C81.1787 61.564 81.1787 61.8773 81.1787 62.128C81.1787 62.316 81.1787 62.504 81.116 62.692C80.928 63.3813 80.8027 64.1333 80.6147 64.8853C80.2387 66.2013 79.612 67.392 78.672 68.4573C77.732 69.5227 76.604 70.3373 75.288 70.8387C74.2853 71.2773 73.22 71.528 72.092 71.528C70.1493 71.528 68.144 71.528 66.2013 71.528C66.1387 71.528 66.1387 71.528 66.076 71.528C66.076 71.4653 66.076 71.4653 66.076 71.4653C66.3267 70.5253 66.5773 69.5853 66.828 68.5827C66.9533 68.0813 67.0787 67.58 67.204 67.1413C67.58 66.1387 68.52 65.3867 69.7733 65.3867C70.5253 65.3867 71.2773 65.3867 71.9667 65.324C73.5333 65.136 74.7867 63.82 74.8493 62.128C74.8493 61.4387 74.6613 60.812 74.2853 60.1853C73.7213 59.308 72.844 58.744 71.7787 58.6813C70.5253 58.6187 69.3347 58.6813 68.0813 58.6813C67.956 58.6813 67.8933 58.744 67.8307 58.8693C67.768 59.12 67.7053 59.308 67.6427 59.5587C66.9533 62.0653 66.264 64.572 65.5747 67.0787C65.136 68.7707 64.6347 70.4627 64.196 72.1547C63.8827 73.3453 63.5693 74.4733 63.256 75.664C63.0053 76.6667 62.3787 77.356 61.376 77.6693C61.5013 77.6067 61.3133 77.6067 61.1253 77.6693Z" fill="white"/>
<path d="M43.5787 67.8933C43.5787 67.7053 43.6413 67.5173 43.6413 67.2667C43.9547 65.0107 44.7693 62.9427 46.4613 61.3133C47.4013 60.3733 48.5293 59.684 49.7827 59.1827C51.036 58.6813 52.352 58.556 53.7307 58.6187C55.7987 58.6187 57.9293 58.6187 59.9973 58.6187C60.06 58.6187 60.06 58.6187 60.1853 58.6187C60.06 59.1827 59.9347 59.684 59.7467 60.248C59.496 61.1253 59.308 62.0653 59.0573 62.9427C58.744 64.0707 57.7413 64.76 56.5507 64.76C55.4853 64.76 54.42 64.76 53.3547 64.76C51.6 64.76 50.284 65.888 49.9707 67.5173C49.6573 69.084 50.5347 70.964 52.4147 71.4027C52.6653 71.4653 52.916 71.4653 53.1667 71.4653C53.856 71.4653 54.4827 71.4653 55.2347 71.4653C55.8613 71.4653 56.3627 71.7787 56.488 72.3427C56.5507 72.656 56.488 73.032 56.3627 73.3453C55.9867 74.7867 55.6107 76.1653 55.172 77.6067C54.232 77.6067 53.292 77.6067 52.352 77.6067C52.2893 77.6067 52.2267 77.544 52.164 77.544C51.4747 77.4813 50.848 77.356 50.2213 77.168C48.592 76.6667 47.2133 75.7267 46.0853 74.4733C44.832 73.032 44.08 71.34 43.8293 69.46C43.8293 69.272 43.7667 69.0213 43.7667 68.8333C43.5787 68.5827 43.5787 68.2693 43.5787 67.8933Z" fill="white"/>
</g>
<defs>
<clipPath id="clip0_7_141">
<rect width="94" height="94" fill="white" transform="translate(14 14)"/>
</clipPath>
</defs>
</svg>
