<svg width="56" height="56" viewBox="0 0 56 56" fill="none" xmlns="http://www.w3.org/2000/svg">
<circle cx="28" cy="28" r="28" fill="#EF9F00"/>
<g clip-path="url(#clip0_7_124)">
<path d="M26.7056 13.7613C26.7631 13.7038 26.8206 13.7038 26.9069 13.7038C27.626 13.7038 28.3452 13.7038 29.0643 13.7038C29.2657 13.7038 29.4095 13.5887 29.4095 13.3586C29.4095 12.7833 29.4095 12.208 29.4095 11.6039C29.4095 11.4026 29.2944 11.2588 29.0643 11.2588C28.1726 11.2588 27.3096 11.2588 26.4179 11.2588C26.3892 11.2588 26.3604 11.2588 26.3029 11.2588C26.159 11.2875 26.0727 11.4026 26.0727 11.5752C26.0727 12.4381 26.0727 13.3298 26.0727 14.1928V14.2216C26.1015 14.2216 26.1015 14.1928 26.1015 14.1928C26.3029 14.1065 26.5042 13.9339 26.7056 13.7613ZM28.0863 12.8121C28.0575 12.8121 28.0575 12.8121 28.0288 12.8121C27.626 12.8121 27.2521 12.8121 26.8494 12.8121C26.7631 12.8121 26.6768 12.7545 26.6768 12.6682C26.6768 12.582 26.7343 12.5244 26.8494 12.5244C27.0507 12.5244 27.2521 12.5244 27.4247 12.5244C27.626 12.5244 27.8274 12.5244 28.0288 12.5244C28.0863 12.5244 28.1726 12.582 28.1726 12.6682C28.2013 12.697 28.1438 12.7833 28.0863 12.8121ZM26.7919 11.9204C26.8206 11.9204 26.8206 11.9204 26.8494 11.9204C27.4535 11.9204 28.0288 11.9204 28.6328 11.9204C28.7191 11.9204 28.8054 11.9779 28.8054 12.0642C28.8054 12.1505 28.7479 12.208 28.6328 12.208C28.3452 12.208 28.0288 12.208 27.7411 12.208C27.4535 12.208 27.137 12.208 26.8494 12.208C26.7631 12.208 26.7056 12.1505 26.7056 12.0642C26.6768 12.0066 26.7343 11.9204 26.7919 11.9204Z" fill="white"/>
<path d="M11.4601 27.8562C11.4601 28.6328 11.4601 29.4095 11.4601 30.1574C11.9204 29.7547 12.3806 29.3807 12.8408 29.0068C12.3806 28.6041 11.9204 28.2301 11.4601 27.8562Z" fill="white"/>
<path d="M13.675 29.0931C13.4737 29.2657 13.186 29.2657 12.9847 29.0931C12.9559 29.0643 12.9559 29.0931 12.9271 29.0931C12.4956 29.467 12.0354 29.8122 11.6039 30.1862H11.5752C12.7258 30.1862 13.8764 30.1862 15.0557 30.1862C14.5955 29.841 14.164 29.467 13.675 29.0931Z" fill="white"/>
<path d="M15.1996 30.1574C15.1996 29.3807 15.1996 28.6041 15.1996 27.8562C14.7393 28.2589 14.2791 28.6328 13.8188 29.0068C14.2791 29.3807 14.7393 29.7834 15.1996 30.1574Z" fill="white"/>
<path d="M11.9204 27.396C11.7765 27.511 11.6327 27.5973 11.4889 27.6836C11.6327 27.7987 11.7765 27.9137 11.9204 28.0288C11.9204 27.8274 11.9204 27.6261 11.9204 27.396Z" fill="white"/>
<path d="M28 9.73422C17.9035 9.73422 9.73421 17.9035 9.73421 28C9.73421 38.0965 17.9035 46.2658 28 46.2658C38.0965 46.2658 46.2658 38.0965 46.2658 28C46.2658 17.9035 38.0965 9.73422 28 9.73422ZM43.1592 26.5905C43.1879 26.2741 43.4181 25.9865 43.7345 25.9577C43.792 25.9577 43.8208 25.9577 43.8495 25.9577C44.3098 25.9577 44.655 26.3604 44.5974 26.7919C44.5399 27.2521 44.0221 27.5398 43.6194 27.3384C43.5906 27.3384 43.5906 27.3097 43.5619 27.2809C43.5331 27.022 43.3893 26.8206 43.1879 26.6768C43.1592 26.6193 43.1592 26.5905 43.1592 26.5905ZM42.6702 26.6768C43.0729 26.6768 43.3893 26.9932 43.3893 27.396C43.3893 27.7987 43.0729 28.1151 42.6702 28.1151C42.2675 28.1151 41.951 27.7987 41.951 27.396C41.951 26.9932 42.2962 26.6768 42.6702 26.6768ZM41.4045 25.9002C41.8072 25.9002 42.1236 26.2166 42.1236 26.6193C42.1236 26.6481 42.1236 26.6768 42.0949 26.6768C41.951 26.8206 41.836 26.9932 41.8072 27.1946C41.8072 27.2234 41.7784 27.2234 41.7784 27.2521C41.3757 27.4822 40.8292 27.2521 40.7141 26.7919C40.5991 26.3604 40.9443 25.9289 41.4045 25.9002ZM29.9848 12.4957C29.8985 12.4957 29.841 12.4381 29.841 12.3231C29.841 12.2368 29.8985 12.1792 29.9848 12.1792C30.2724 12.1792 30.5313 12.3806 30.5601 12.6683V12.697C30.5601 13.675 30.5601 14.6818 30.5601 15.6598C30.5601 15.6886 30.5313 15.6886 30.5313 15.7173C30.4738 15.8036 30.3875 15.8036 30.3012 15.7173C30.1286 15.5735 29.956 15.4297 29.7834 15.2859C29.6684 15.1996 29.5533 15.142 29.4095 15.142C28.8054 15.142 28.1726 15.142 27.5685 15.142C27.2809 15.142 27.0508 14.9695 26.9645 14.6818C26.9357 14.5955 26.9357 14.4805 26.9645 14.3654C26.9645 14.3079 27.0508 14.2216 27.1083 14.2503C27.1658 14.2503 27.2521 14.3079 27.2521 14.3942C27.2521 14.4517 27.2521 14.4805 27.2521 14.538C27.2521 14.7393 27.3959 14.8544 27.5685 14.8544C27.9137 14.8544 28.2301 14.8544 28.5753 14.8544C28.9205 14.8544 29.2657 14.8544 29.6108 14.8544C29.6684 14.8544 29.7259 14.8832 29.7834 14.9119C29.9273 15.027 30.0711 15.142 30.2149 15.2571C30.2149 15.2571 30.2437 15.2571 30.2437 15.2859C30.2437 15.2571 30.2437 15.2571 30.2437 15.2283C30.2437 14.4229 30.2437 13.5887 30.2437 12.7546C30.3012 12.6395 30.1861 12.5244 29.9848 12.4957ZM25.7851 11.6039C25.7851 11.3163 25.9577 11.0862 26.2453 10.9999C26.2741 10.9999 26.2741 10.9999 26.3029 10.9999C27.2521 10.9999 28.2014 10.9999 29.1506 10.9999C29.2369 11.0286 29.3232 11.0574 29.3807 11.0862C29.5821 11.2012 29.6684 11.3738 29.6684 11.6039C29.6684 12.208 29.6684 12.8121 29.6684 13.4161C29.6684 13.7613 29.4095 14.0202 29.0643 14.0202C28.3452 14.0202 27.6261 14.0202 26.9069 14.0202C26.8782 14.0202 26.8494 14.0202 26.8206 14.049C26.5617 14.2791 26.2741 14.4805 26.0152 14.7106C25.9864 14.7681 25.9289 14.7681 25.8714 14.7393C25.8426 14.7106 25.8139 14.6818 25.8139 14.6243V14.5955C25.7851 13.5887 25.7851 12.6107 25.7851 11.6039ZM15.3146 30.2149C15.3146 30.2725 15.3146 30.33 15.3146 30.3587C15.2571 30.3587 15.1996 30.3587 15.1708 30.3587C13.9339 30.3587 12.7258 30.3587 11.4889 30.3587H11.4601C11.3738 30.33 11.345 30.2725 11.345 30.1862C11.345 29.3807 11.345 28.5466 11.345 27.7411C11.345 27.7124 11.345 27.6836 11.3738 27.6836C11.5464 27.5685 11.719 27.4247 11.9203 27.3097C11.9491 27.3097 11.9491 27.2809 11.9491 27.2521C11.9491 27.1371 11.9491 27.022 11.9491 26.9069C11.9491 26.7919 12.0066 26.7344 12.1217 26.7344C12.3231 26.7344 12.4957 26.7344 12.6682 26.7344C12.697 26.7344 12.7258 26.7344 12.7258 26.7056C12.8121 26.6481 12.9271 26.5618 13.0134 26.5042C13.2148 26.3604 13.4449 26.3604 13.6463 26.5042C13.7325 26.5618 13.8476 26.6481 13.9339 26.7056C13.9627 26.7056 13.9914 26.7344 14.0202 26.7344C14.1928 26.7344 14.3941 26.7344 14.5667 26.7344C14.6818 26.7344 14.7393 26.7919 14.7393 26.9069C14.7393 27.022 14.7393 27.1371 14.7393 27.2521C14.7393 27.2809 14.7393 27.3097 14.7681 27.3097C14.9407 27.4247 15.1133 27.5398 15.2859 27.6836C15.3146 27.6836 15.3146 27.7124 15.3434 27.7411C15.3146 28.5178 15.3146 29.352 15.3146 30.2149ZM30.3587 43.7633C30.33 43.8783 30.3012 43.9358 30.2149 43.9934C30.1286 44.0509 30.0423 44.0797 29.9273 44.0797C29.4958 44.0797 29.0643 44.0797 28.6328 44.0797C28.6041 44.0797 28.6041 44.0797 28.5753 44.0797C28.5753 44.2235 28.6041 44.3673 28.6616 44.5111C28.6904 44.5974 28.7479 44.655 28.8342 44.6837C28.863 44.6837 28.8917 44.6837 28.9205 44.6837C28.978 44.6837 29.0068 44.7413 28.978 44.7988C28.978 44.8563 28.9205 44.8563 28.8342 44.8563C28.2589 44.8563 27.6836 44.8563 27.137 44.8563C27.137 44.8563 27.1083 44.8563 27.0795 44.8563C27.0508 44.8563 27.022 44.8276 26.9932 44.7988C26.9645 44.7413 27.022 44.6837 27.1083 44.655C27.1658 44.655 27.2233 44.6262 27.2521 44.5687C27.3672 44.4248 27.3672 44.2523 27.3959 44.0797C27.3672 44.0797 27.3384 44.0797 27.3384 44.0797C26.9069 44.0797 26.4755 44.0797 26.044 44.0797C25.9864 44.0797 25.9577 44.0797 25.9002 44.0797C25.6988 44.0221 25.5837 43.8783 25.5837 43.677C25.5837 42.7565 25.5837 41.8648 25.5837 40.9443V40.9155C25.5837 40.7142 25.7276 40.5703 25.9289 40.5416C26.0727 40.5416 26.1878 40.5416 26.3316 40.5416C27.511 40.5416 28.6904 40.5416 29.8985 40.5416C30.0136 40.5416 30.0998 40.5703 30.1861 40.6566C30.2437 40.7142 30.3012 40.8005 30.33 40.8867C30.3587 41.836 30.3587 42.814 30.3587 43.7633ZM28 39.1033C21.873 39.1033 16.8967 34.127 16.8967 28C16.8967 21.8731 21.873 16.8967 28 16.8967C34.127 16.8967 39.1033 21.8731 39.1033 28C39.1033 34.127 34.127 39.1033 28 39.1033ZM41.0018 29.2944C40.7429 29.2657 40.484 29.2081 40.2251 29.1219C40.1964 29.1219 40.1676 29.0931 40.1676 29.0643C40.1676 28.8342 40.1676 28.6041 40.1676 28.374C40.1676 27.9137 40.484 27.5398 40.9155 27.4535C40.973 27.4535 41.0306 27.4535 41.0881 27.4247C41.2894 27.4247 41.5196 27.4247 41.7497 27.4247C41.7497 27.4247 41.7784 27.4247 41.8072 27.4247C41.8072 27.6548 41.9223 27.8562 42.0661 28.0288C41.462 28.2589 41.2319 28.6904 41.2894 29.3232C41.1744 29.3232 41.1169 29.2944 41.0018 29.2944ZM43.8783 29.8697C43.6769 29.956 43.5043 30.0136 43.303 30.0423C42.9866 30.0999 42.6414 30.0999 42.325 30.0711C42.0373 30.0423 41.7497 29.9848 41.4908 29.8985C41.462 29.8985 41.462 29.8697 41.462 29.841C41.462 29.5821 41.462 29.2944 41.462 29.0356C41.4908 28.6904 41.6634 28.4603 41.951 28.2877C42.0661 28.2301 42.2099 28.2014 42.3538 28.1726C42.5839 28.1726 42.8428 28.1726 43.0729 28.1726C43.5619 28.2014 43.9358 28.6041 43.9358 29.0931C43.9358 29.2081 43.9358 29.3232 43.9358 29.4383C43.9358 29.5821 43.9358 29.6972 43.9358 29.8122C43.9358 29.841 43.9071 29.841 43.8783 29.8697ZM44.0796 29.3232C44.0796 29.2944 44.0796 29.2657 44.0796 29.2369C44.0796 29.0931 44.0797 28.9205 44.0221 28.7767C43.9071 28.4315 43.6769 28.2014 43.3318 28.0575C43.3318 28.0575 43.303 28.0575 43.2742 28.0288C43.4468 27.8562 43.5331 27.6548 43.5331 27.4247H43.5619C43.7632 27.4247 43.9646 27.4247 44.1659 27.4247C44.5974 27.4247 45.0001 27.7699 45.0577 28.2014V28.2301C45.0577 28.5178 45.0577 28.8054 45.0577 29.0931C44.7988 29.2657 44.3385 29.3232 44.0796 29.3232Z" fill="white"/>
<path d="M13.7325 26.7056C13.675 26.6481 13.5887 26.6193 13.5312 26.5618C13.4737 26.533 13.3874 26.5042 13.3011 26.5042C13.1572 26.5042 13.0709 26.6193 12.9271 26.7056C13.2148 26.7056 13.4737 26.7056 13.7325 26.7056Z" fill="white"/>
<path d="M12.0929 28.2014C12.4381 28.4603 12.7545 28.7479 13.0709 29.0356C13.2148 29.1506 13.4161 29.1506 13.5887 29.0356C13.6175 29.0068 13.6463 28.978 13.7038 28.9493C13.9914 28.6904 14.3078 28.4603 14.5955 28.2014C14.5955 28.2014 14.6243 28.1726 14.6243 28.1438C14.6243 27.7124 14.6243 27.3097 14.6243 26.8782V26.8494C13.7901 26.8494 12.9271 26.8494 12.0929 26.8494C12.0929 27.2809 12.0929 27.7124 12.0929 28.1438C12.0642 28.1726 12.0642 28.1726 12.0929 28.2014ZM12.6107 27.5973C12.7545 27.3384 12.9847 27.1658 13.2723 27.1083C13.6175 27.0508 13.9051 27.1946 14.0202 27.511C14.1065 27.7411 14.0777 27.9425 13.9339 28.1438C13.8476 28.2589 13.7325 28.2877 13.6175 28.2877C13.56 28.2877 13.5024 28.2301 13.4737 28.1726C13.3874 28.2301 13.3011 28.2877 13.2148 28.2877C13.0134 28.2877 12.8696 28.1438 12.8696 27.9425C12.8696 27.7411 12.9847 27.5685 13.1572 27.4535C13.2723 27.3959 13.4161 27.4247 13.5312 27.511C13.5312 27.511 13.5312 27.5398 13.56 27.5398C13.56 27.511 13.56 27.511 13.56 27.4822C13.56 27.4247 13.5887 27.4247 13.6463 27.4247C13.675 27.4247 13.7038 27.4822 13.7038 27.511C13.7038 27.5973 13.675 27.6836 13.6463 27.7699C13.6175 27.885 13.5887 27.9712 13.5887 28.0863C13.5887 28.1151 13.5887 28.1438 13.6463 28.1438C13.7038 28.1438 13.7901 28.1438 13.8188 28.0863C13.9627 27.9425 13.9627 27.7699 13.9051 27.5685C13.8476 27.3959 13.7038 27.2809 13.5024 27.2234C13.1285 27.1658 12.7545 27.3959 12.6682 27.7699C12.5819 28.0575 12.7545 28.3452 13.0422 28.4315C13.2435 28.489 13.4737 28.5178 13.675 28.4603C13.8188 28.4315 13.9051 28.374 14.0202 28.2589C14.049 28.2301 14.0777 28.2014 14.1353 28.2589C14.164 28.2877 14.164 28.3164 14.1353 28.374L14.1065 28.4027C13.9914 28.5178 13.8476 28.6041 13.675 28.6328C13.4449 28.6904 13.186 28.6616 12.9847 28.5753C12.5532 28.4027 12.4094 27.9712 12.6107 27.5973Z" fill="white"/>
<path d="M13.2435 27.5973C13.0997 27.6836 13.0422 27.7987 13.0134 27.9425C13.0134 28.1151 13.1285 28.2014 13.2723 28.1438C13.3586 28.1151 13.4161 28.0575 13.4737 27.9713C13.5312 27.8562 13.56 27.7411 13.4737 27.6261C13.4161 27.5685 13.3011 27.5398 13.2435 27.5973Z" fill="white"/>
<path d="M14.7393 27.396C14.7393 27.6261 14.7393 27.8274 14.7393 28.0288C14.8831 27.9137 15.027 27.7987 15.1708 27.6836C15.027 27.5973 14.8831 27.511 14.7393 27.396Z" fill="white"/>
<path d="M28 43.5044C27.8849 43.5044 27.7986 43.5907 27.7986 43.7057C27.7986 43.8208 27.8849 43.9071 28 43.9071C28.1151 43.9071 28.2014 43.8208 28.2014 43.7057C28.2014 43.5907 28.1151 43.5044 28 43.5044Z" fill="white"/>
<path d="M26.0152 43.303C27.3384 43.303 28.6616 43.303 29.956 43.303C29.956 42.4976 29.956 41.7209 29.956 40.9443C28.6328 40.9443 27.3384 40.9443 26.0152 40.9443C26.0152 41.7497 26.0152 42.5264 26.0152 43.303Z" fill="white"/>
<path d="M15.1708 30.3587C15.2283 30.3587 15.2859 30.3587 15.3146 30.3587C15.3146 30.3012 15.3146 30.2437 15.3146 30.2149C15.3146 30.3012 15.2571 30.3587 15.1708 30.3587Z" fill="white"/>
<path d="M24.4044 28.0575H22.5059L22.1607 29.6684H24.4331L24.0304 30.819H20.4923L21.873 24.3756H25.2961L25.0372 25.555H23.0524L22.7648 26.9069H24.6633L24.4044 28.0575Z" fill="white"/>
<path d="M29.1506 28.7479C29.352 27.7411 29.6684 26.3892 29.841 25.6125H29.7834C29.3232 26.9645 28.4602 29.3232 27.8562 30.819H26.7056C26.7919 29.352 26.9645 26.9069 27.0795 25.6125H27.022C26.8782 26.3604 26.648 27.7124 26.4179 28.8054L25.9864 30.819H24.692L26.0727 24.3756H28.1151C28.1151 25.4975 28 27.3384 27.8849 28.2301H27.9137C28.2301 27.2809 28.8917 25.6988 29.4382 24.3756H31.4518L30.0711 30.819H28.7191L29.1506 28.7479Z" fill="white"/>
<path d="M32.4873 28.9205C32.4298 29.3807 32.5161 29.841 33.0051 29.841C33.3503 29.841 33.5517 29.6109 33.6092 29.2657C33.6955 28.8342 33.5517 28.489 32.9188 27.9712C31.9983 27.2234 31.6532 26.6768 31.8258 25.7563C31.9696 24.9222 32.5449 24.2606 33.7242 24.2606C35.3351 24.2606 35.6227 25.3824 35.5077 26.1591H34.1845C34.2132 25.8139 34.1845 25.3536 33.7242 25.3536C33.4366 25.3536 33.264 25.5262 33.2065 25.8714C33.1489 26.1878 33.264 26.4179 33.9256 26.9645C34.9899 27.7987 35.2776 28.4315 35.0474 29.467C34.8461 30.33 34.242 30.9628 33.0051 30.9628C31.3655 30.9628 31.0203 29.9273 31.1642 28.9493L32.4873 28.9205Z" fill="white"/>
</g>
<defs>
<clipPath id="clip0_7_124">
<rect width="43.1475" height="43.1475" fill="white" transform="translate(6.42622 6.42624)"/>
</clipPath>
</defs>
</svg>
