<svg width="162" height="206" viewBox="0 0 162 206" fill="none" xmlns="http://www.w3.org/2000/svg">
<path d="M81 206C102.475 205.975 123.063 197.44 138.248 182.269C153.433 167.097 161.975 146.527 162 125.071C162.02 107.539 156.288 90.4826 145.682 76.5143C145.682 76.5143 143.473 73.6082 143.112 73.1888L81 -1.3592e-06L18.8583 73.2256C18.5343 73.6155 16.3179 76.5143 16.3179 76.5143L16.3105 76.5363C5.71192 90.4995 -0.0169897 107.547 3.75926e-05 125.071C0.0253806 146.527 8.5674 167.097 23.7524 182.269C38.9373 197.44 59.5252 205.975 81 206ZM81 95.6428C86.8256 95.6428 92.5203 97.3688 97.3641 100.602C102.208 103.836 105.983 108.432 108.212 113.81C110.442 119.187 111.025 125.104 109.889 130.813C108.752 136.521 105.947 141.765 101.828 145.881C97.7082 149.996 92.4599 152.799 86.7463 153.935C81.0327 155.07 75.1104 154.487 69.7282 152.26C64.3461 150.032 59.746 146.261 56.5095 141.421C53.2729 136.582 51.5455 130.892 51.5455 125.071C51.5552 117.269 54.6616 109.79 60.1833 104.273C65.705 98.7562 73.1912 95.6526 81 95.6428Z" fill="white"/>
</svg>
