<?xml version="1.0" encoding="utf-8"?>
<!-- Generator: Adobe Illustrator 23.0.5, SVG Export Plug-In . SVG Version: 6.00 Build 0)  -->
<svg version="1.1" id="Layer_1" xmlns="http://www.w3.org/2000/svg" xmlns:xlink="http://www.w3.org/1999/xlink" x="0px" y="0px"
	 viewBox="0 0 375 103" style="enable-background:new 0 0 375 103;" xml:space="preserve">
<style type="text/css">
	.st0{fill:#B12A26;}
</style>
<g>
	<path class="st0" d="M21.8,34.2c-3.4,0-6.1,1.5-8.3,4.4c-2.1,2.9-3.2,6.9-3.2,11.9c0,7,1.6,12.4,4.7,16.3c3.1,3.9,7.3,5.8,12.5,5.8
		c2.3,0,4.2-0.4,5.8-1.1c1.5-0.7,2.9-1.4,4-2.2c0.2-0.1,0.5-0.3,0.8-0.5c0.3-0.2,0.6-0.3,0.9-0.3c0.4,0,0.8,0.3,1.2,0.8
		c0.4,0.5,0.7,0.9,0.9,1.2c-0.7,0.9-1.6,1.7-2.7,2.6c-1.1,0.9-2.4,1.7-3.9,2.4c-1.5,0.8-3.3,1.4-5.3,1.8c-2,0.5-4.4,0.7-7,0.7
		c-2.9,0-5.7-0.5-8.4-1.5c-2.6-1-4.9-2.4-6.9-4.4c-2-1.9-3.5-4.4-4.7-7.3C1,62.1,0.4,58.7,0.4,54.9c0-3.7,0.7-7,2.1-10.1
		c1.4-3,3.2-5.7,5.4-7.8c2.2-2.2,4.6-3.8,7.3-5.1c2.7-1.2,5.3-1.8,7.9-1.8c2.7,0,5.1,0.3,7.2,0.9c2.2,0.6,4,1.3,5.5,2.3
		c1.5,0.9,2.7,2,3.5,3.3c0.8,1.3,1.2,2.6,1.2,3.9c0,0.4-0.4,0.8-1.1,1.1c-0.7,0.3-1.5,0.5-2.4,0.7c-0.9,0.2-1.8,0.3-2.6,0.4
		c-0.8,0.1-1.3,0.1-1.5,0.1c-0.9,0-1.7-0.4-2.2-1.3c-0.5-0.9-1.1-1.9-1.8-2.9c-0.6-1-1.5-2-2.6-2.9C25.4,34.6,23.8,34.2,21.8,34.2"
		/>
	<path class="st0" d="M39.1,54.1c0-3.3,0.6-6.4,1.9-9.4c1.3-2.9,3-5.5,5.1-7.6c2.2-2.2,4.7-3.9,7.6-5.1c2.9-1.3,6.1-1.9,9.4-1.9
		c3.5,0,6.8,0.6,9.7,1.8s5.5,2.8,7.6,4.9c2.1,2.1,3.8,4.6,5,7.6c1.2,3,1.8,6.2,1.8,9.7c0,3.4-0.6,6.5-1.9,9.4
		c-1.3,2.9-3,5.4-5.1,7.6c-2.2,2.2-4.7,3.9-7.6,5.1c-2.9,1.3-6.1,1.9-9.4,1.9c-3.5,0-6.8-0.6-9.7-1.8c-2.9-1.2-5.5-2.8-7.6-4.9
		c-2.1-2.1-3.8-4.6-5-7.5C39.7,61,39.1,57.7,39.1,54.1 M49.3,50.6c0,2.7,0.3,5.4,0.9,8.2c0.6,2.8,1.5,5.3,2.6,7.6
		c1.2,2.3,2.7,4.1,4.6,5.6c1.9,1.5,4.1,2.2,6.8,2.2c4.1,0,7.3-1.4,9.5-4.3c2.3-2.9,3.4-6.6,3.4-11.1c0-2.7-0.3-5.4-0.8-8.3
		c-0.5-2.9-1.4-5.6-2.6-8c-1.2-2.4-2.7-4.4-4.6-6c-1.9-1.6-4.3-2.4-7.1-2.4c-3.8,0-6.9,1.3-9.2,3.9C50.4,40.6,49.3,44.8,49.3,50.6"
		/>
	<path class="st0" d="M92,74.6c-3.1-1.8-4.6-4.4-4.6-7.8c0-3.6,2.4-6.5,7.1-8.8c-2-1.2-3.6-2.9-4.8-4.9c-1.2-2-1.8-4.6-1.8-7.6
		c0-2,0.5-3.9,1.5-5.8c1-1.9,2.3-3.5,3.9-5c1.7-1.4,3.5-2.6,5.7-3.4c2.1-0.8,4.4-1.2,6.7-1.2c3.6,0,6.5,0.4,8.6,1.3
		c2.2,0.9,4,1.9,5.6,3.2l10.7-4.6c0.8,0.5,1.4,1.2,1.7,2c0.4,0.8,0.5,1.6,0.5,2.3c0,1.6-0.5,2.4-1.6,2.4l-3.9-0.1
		c-1.4,0-3,0.2-5,0.6c1.7,2.2,2.6,5,2.6,8.2c0,2.2-0.5,4.3-1.5,6.1c-1,1.9-2.4,3.5-4.1,4.8c-1.7,1.3-3.8,2.4-6.1,3.1
		c-2.4,0.8-4.9,1.1-7.6,1.1c-1.5,0-2.9-0.1-4.3-0.3c-1.4-0.2-2.7-0.5-3.9-0.9c-1.9,0.9-3.2,1.7-3.9,2.6c-0.7,0.9-1.1,1.7-1.1,2.5
		c0,0.6,0.2,1.1,0.5,1.7c0.4,0.5,1,1,2,1.4c1,0.4,2.3,0.7,4.1,1c1.8,0.3,4,0.4,6.7,0.4c3.2,0,6.3,0.3,9.2,0.8
		c2.9,0.5,5.4,1.3,7.6,2.5c2.2,1.1,3.9,2.7,5.2,4.5c1.3,1.9,1.9,4.1,1.9,6.8c0,2.9-0.6,5.6-1.8,8c-1.2,2.4-2.8,4.4-5,6.1
		c-2.1,1.7-4.7,3-7.7,3.9c-3,0.9-6.2,1.3-9.8,1.3c-6.8,0-12-1.2-15.9-3.7c-3.8-2.4-5.7-6.4-5.7-11.7c0-1.6,0.3-3,0.8-4.4
		c0.5-1.3,1.1-2.5,1.9-3.6c0.8-1.1,1.6-2,2.6-2.8C90.2,75.7,91.1,75.1,92,74.6 M94.6,75.8c-1.7,1.7-2.7,3.7-2.9,6.2
		c-0.1,0.6-0.1,1.1-0.1,1.7v1.8c0.1,1.5,0.5,3,1.2,4.5c0.7,1.5,1.8,2.8,3.1,4c1.4,1.1,3.1,2.1,5.1,2.8c2,0.7,4.3,1.1,7,1.1
		c5,0,8.6-1.1,10.8-3.3c2.3-2.2,3.4-4.9,3.4-8.1c0-1.4-0.3-2.6-0.9-3.8c-0.6-1.1-1.5-2.1-2.9-3c-1.4-0.8-3.2-1.5-5.4-1.9
		c-2.2-0.5-5-0.7-8.3-0.7c-1.9,0-3.7-0.1-5.4-0.3C97.5,76.7,95.9,76.4,94.6,75.8 M106.8,56.8c2.7,0,4.8-0.9,6.4-2.6
		c1.6-1.7,2.4-4.1,2.4-7.1c0-1.6-0.2-3.1-0.5-4.7c-0.3-1.5-0.9-2.9-1.7-4.2c-0.8-1.3-1.9-2.3-3.2-3.1c-1.3-0.8-3-1.2-5-1.2
		c-2.5,0-4.5,0.8-6,2.5c-1.5,1.7-2.2,3.9-2.2,6.8c0,1.7,0.2,3.3,0.5,4.9c0.3,1.6,0.9,3.1,1.6,4.4c0.8,1.3,1.8,2.3,3,3.1
		C103.3,56.4,104.9,56.8,106.8,56.8"/>
	<path class="st0" d="M181,70.7c0,1.1,0.6,1.9,1.9,2.4c1.3,0.5,2.7,1,4.3,1.2c0.6,0.1,1,0.6,1,1.3c0,0.4-0.1,1-0.2,1.7
		c-1.9-0.1-3.7-0.3-5.5-0.4c-1.8-0.1-3.7-0.2-5.8-0.2c-1.9,0-3.9,0.1-5.8,0.2c-1.9,0.1-3.8,0.2-5.7,0.4c-0.1-0.7-0.2-1.3-0.2-1.7
		c0-0.7,0.3-1.1,1-1.3c1.5-0.3,2.9-0.7,4.1-1.2c1.2-0.5,1.8-1.3,1.8-2.4V49.6c0-1.8-0.1-3.4-0.3-5c-0.2-1.5-0.6-2.8-1.2-3.9
		c-0.6-1.1-1.4-2-2.5-2.6c-1-0.6-2.4-0.9-4-0.9c-1.8,0-3.5,0.3-5.3,0.9c-1.7,0.6-3.2,1.5-4.6,2.7c-1.3,1.2-2.4,2.6-3.2,4.4
		c-0.8,1.7-1.2,3.7-1.2,5.9v19.6c0,1.1,0.6,1.9,1.9,2.4c1.3,0.5,2.6,1,4,1.2c0.6,0.1,1,0.6,1,1.3c0,0.4-0.1,1-0.2,1.7
		c-1.9-0.1-3.7-0.3-5.5-0.4c-1.8-0.1-3.7-0.2-5.8-0.2c-2.1,0-4.1,0.1-6,0.2c-1.9,0.1-3.7,0.2-5.5,0.4c-0.1-0.7-0.2-1.3-0.2-1.7
		c0-0.7,0.3-1.1,1-1.3c1.6-0.3,3-0.7,4.3-1.2c1.3-0.5,1.9-1.4,1.9-2.5V41.3c0-2.2-0.4-3.7-1.1-4.6c-0.8-0.9-2.4-1.5-4.9-1.7
		c-0.9-0.1-1.4-0.6-1.4-1.5c0-0.4,0.1-0.8,0.2-1.4c0.9,0,2.2-0.1,3.9-0.2c1.7-0.1,3.1-0.2,4.2-0.4c1.7-0.3,3.2-0.6,4.5-0.9
		c1.3-0.3,2.3-0.5,2.8-0.5c1,0,1.5,0.5,1.5,1.6c0,1-0.1,2.2-0.3,3.6c-0.2,1.4-0.3,3.2-0.3,5.5c3.1-3.4,6-6.1,8.9-8
		c2.8-1.9,5.9-2.8,9.3-2.8c4.4,0,7.6,1.3,9.8,3.8c2.2,2.5,3.3,6.1,3.3,10.6V70.7z"/>
	<path class="st0" d="M223,66.8c0.5-0.5,1-0.8,1.6-0.8c0.7,0,1.4,0.6,2,1.8c-0.9,1.3-2,2.5-3.2,3.8c-1.2,1.2-2.7,2.3-4.4,3.3
		c-1.7,1-3.6,1.7-5.8,2.3c-2.2,0.6-4.6,0.9-7.4,0.9c-2.9,0-5.6-0.5-8.2-1.4c-2.6-0.9-4.9-2.4-6.8-4.3c-2-1.9-3.6-4.3-4.7-7.2
		c-1.2-2.9-1.8-6.2-1.8-10.1c0-3.7,0.7-7,2.1-10.1c1.4-3.1,3.2-5.7,5.4-7.9c2.2-2.2,4.7-3.9,7.4-5.1c2.7-1.2,5.3-1.8,7.8-1.8
		c6.7,0,11.6,1.9,14.6,5.8c3.1,3.9,4.6,8.9,4.6,15.2c0,0.4-0.2,0.6-0.6,0.6l-31.2,1.4c0,2.8,0.4,5.4,1.2,7.7
		c0.8,2.4,1.9,4.4,3.3,6.1c1.4,1.7,3.2,3.1,5.2,4c2,1,4.4,1.5,6.9,1.5c2.3,0,4.5-0.5,6.6-1.6C219.8,69.8,221.6,68.5,223,66.8
		 M205.6,34c-3.6,0-6.4,1.4-8.4,4.2c-2,2.8-3,6.5-3,11l20.3-1c1.1,0,1.6-0.5,1.6-1.4c0-1.4-0.2-2.8-0.6-4.3
		c-0.4-1.5-1.1-2.9-1.9-4.1c-0.9-1.3-1.9-2.3-3.3-3.1C208.9,34.4,207.4,34,205.6,34"/>
	<path class="st0" d="M266.8,66.8c0.5-0.5,1-0.8,1.6-0.8c0.7,0,1.4,0.6,2,1.8c-0.9,1.3-2,2.5-3.2,3.8c-1.2,1.2-2.7,2.3-4.4,3.3
		c-1.7,1-3.6,1.7-5.8,2.3c-2.2,0.6-4.6,0.9-7.4,0.9c-2.9,0-5.6-0.5-8.2-1.4c-2.6-0.9-4.9-2.4-6.8-4.3c-2-1.9-3.6-4.3-4.7-7.2
		c-1.2-2.9-1.8-6.2-1.8-10.1c0-3.7,0.7-7,2.1-10.1c1.4-3.1,3.2-5.7,5.4-7.9c2.2-2.2,4.7-3.9,7.4-5.1c2.7-1.2,5.3-1.8,7.8-1.8
		c6.7,0,11.6,1.9,14.6,5.8c3.1,3.9,4.6,8.9,4.6,15.2c0,0.4-0.2,0.6-0.6,0.6l-31.2,1.4c0,2.8,0.4,5.4,1.2,7.7
		c0.8,2.4,1.9,4.4,3.3,6.1c1.4,1.7,3.2,3.1,5.2,4c2,1,4.4,1.5,6.9,1.5c2.3,0,4.5-0.5,6.6-1.6C263.6,69.8,265.4,68.5,266.8,66.8
		 M249.4,34c-3.6,0-6.4,1.4-8.4,4.2c-2,2.8-3,6.5-3,11l20.3-1c1.1,0,1.6-0.5,1.6-1.4c0-1.4-0.2-2.8-0.6-4.3
		c-0.4-1.5-1.1-2.9-1.9-4.1c-0.9-1.3-1.9-2.3-3.3-3.1C252.7,34.4,251.2,34,249.4,34"/>
	<path class="st0" d="M301,43.3c-0.6,0-1-0.1-1.2-0.4c-0.3-0.3-0.4-0.5-0.5-0.8c-0.5-2.9-1.7-5-3.5-6.3c-1.8-1.3-4.1-1.9-6.8-1.9
		c-2.1,0-3.9,0.6-5.6,1.8c-1.6,1.2-2.4,2.8-2.4,4.9c0,1.9,0.7,3.4,2.2,4.7c1.5,1.3,4.2,2.5,8,3.7c2.1,0.6,4,1.4,5.8,2.2
		c1.8,0.8,3.3,1.7,4.5,2.9c1.3,1.1,2.2,2.5,3,4.1c0.7,1.6,1.1,3.5,1.1,5.8c0,1.9-0.3,3.7-1,5.4c-0.7,1.7-1.7,3.2-3.1,4.5
		c-1.4,1.3-3.2,2.3-5.3,3.1c-2.1,0.8-4.7,1.2-7.6,1.2c-2.3,0-4.9-0.3-7.7-0.8c-2.8-0.5-5.4-1.5-7.7-2.7c-0.1-1.9-0.3-3.8-0.4-5.9
		c-0.1-2-0.2-4.1-0.2-6.2h1.1c0.7,0,1.3,0.1,1.8,0.4c0.5,0.3,0.8,0.7,0.9,1.2c0.3,3,1.5,5.4,3.5,7.3c2,1.8,4.9,2.7,8.6,2.7
		c2.9,0,5.2-0.7,6.8-2c1.6-1.3,2.4-3.1,2.4-5.4c0-2.4-0.9-4.2-2.6-5.4c-1.7-1.3-4.3-2.4-7.7-3.4c-4.2-1.3-7.6-3-10-5.1
		c-2.4-2.1-3.6-5.1-3.6-9.1c0-1.9,0.4-3.6,1.1-5.3c0.7-1.6,1.7-3.1,3-4.3c1.3-1.2,2.9-2.2,4.7-2.9c1.9-0.7,4-1.1,6.3-1.1
		c2.9,0,5.6,0.4,8.1,1.1c2.6,0.8,4.5,1.6,6,2.4c0.1,0.6,0.1,1.3,0.2,2.1c0.1,0.8,0.1,1.7,0.2,2.6c0,0.9,0.1,1.8,0.1,2.7
		c0,0.9,0.1,1.7,0.1,2.4L301,43.3z"/>
	<path class="st0" d="M307,54.1c0-3.3,0.6-6.4,1.9-9.4c1.3-2.9,3-5.5,5.1-7.6c2.2-2.2,4.7-3.9,7.6-5.1c2.9-1.3,6.1-1.9,9.4-1.9
		c3.5,0,6.8,0.6,9.7,1.8c2.9,1.2,5.5,2.8,7.6,4.9c2.1,2.1,3.8,4.6,5,7.6c1.2,3,1.8,6.2,1.8,9.7c0,3.4-0.6,6.5-1.9,9.4
		c-1.3,2.9-3,5.4-5.1,7.6c-2.2,2.2-4.7,3.9-7.6,5.1c-2.9,1.3-6.1,1.9-9.4,1.9c-3.5,0-6.8-0.6-9.7-1.8c-2.9-1.2-5.5-2.8-7.6-4.9
		c-2.1-2.1-3.8-4.6-5-7.5C307.6,61,307,57.7,307,54.1 M317.1,50.6c0,2.7,0.3,5.4,0.9,8.2c0.6,2.8,1.5,5.3,2.6,7.6
		c1.2,2.3,2.7,4.1,4.6,5.6c1.9,1.5,4.1,2.2,6.8,2.2c4.1,0,7.3-1.4,9.5-4.3c2.3-2.9,3.4-6.6,3.4-11.1c0-2.7-0.3-5.4-0.8-8.3
		c-0.5-2.9-1.4-5.6-2.6-8c-1.2-2.4-2.7-4.4-4.6-6c-1.9-1.6-4.3-2.4-7.1-2.4c-3.8,0-6.9,1.3-9.2,3.9
		C318.3,40.6,317.1,44.8,317.1,50.6"/>
	<path class="st0" d="M373.9,77.4c-1.9-0.1-3.8-0.3-5.7-0.4c-1.9-0.1-3.9-0.2-5.9-0.2c-2,0-4,0.1-6,0.2c-2.1,0.1-4,0.2-5.8,0.4
		c-0.1-0.7-0.2-1.3-0.2-1.7c0-0.7,0.3-1.1,1-1.3c1.6-0.3,3.1-0.7,4.4-1.2c1.4-0.5,2-1.4,2-2.5V12.7c0-2.3-0.5-3.9-1.3-4.7
		c-0.9-0.8-2.6-1.3-5.1-1.6c-0.9-0.1-1.4-0.6-1.4-1.5c0-0.4,0.1-0.9,0.2-1.5c0.9,0,2.2-0.1,3.9-0.2c1.7-0.1,3.2-0.2,4.5-0.4
		c1.7-0.2,3.2-0.5,4.5-0.9c1.3-0.4,2.3-0.5,2.8-0.5c0.7,0,1.1,0.1,1.3,0.4c0.2,0.3,0.3,0.7,0.3,1.2c0,1.2-0.1,2.6-0.3,4.3
		c-0.2,1.6-0.3,3.5-0.3,5.7v57.6c0,1.1,0.7,2,2,2.5c1.3,0.5,2.8,1,4.5,1.2c0.6,0.1,0.9,0.6,0.9,1.3C374.1,76.1,374,76.6,373.9,77.4"
		/>
</g>
</svg>
