<svg width="19" height="21" viewBox="0 0 19 21" fill="none" xmlns="http://www.w3.org/2000/svg">
<path d="M12.625 16.75H6.375C6.375 17.5788 6.70424 18.3737 7.29029 18.9597C7.87634 19.5458 8.6712 19.875 9.5 19.875C10.3288 19.875 11.1237 19.5458 11.7097 18.9597C12.2958 18.3737 12.625 17.5788 12.625 16.75Z" stroke="black" stroke-linecap="round" stroke-linejoin="round"/>
<path d="M15.75 7.37501V11.5415L17.1875 12.979C17.4967 13.2879 17.7073 13.6816 17.7927 14.1102C17.878 14.5388 17.8343 14.9831 17.667 15.3869C17.4997 15.7907 17.2164 16.1357 16.8529 16.3784C16.4894 16.621 16.062 16.7504 15.625 16.75H3.37498C2.93783 16.7506 2.51034 16.6214 2.14668 16.3788C1.78303 16.1362 1.49957 15.7911 1.33223 15.3872C1.1649 14.9834 1.12121 14.5389 1.2067 14.1102C1.2922 13.6815 1.50303 13.2878 1.81248 12.979L3.24998 11.5415V7.37501C3.24998 5.71741 3.90846 4.1277 5.08057 2.9556C6.25267 1.78349 7.84238 1.12501 9.49998 1.12501C10.5479 1.12284 11.5795 1.38419 12.5 1.88501" stroke="black" stroke-linecap="round" stroke-linejoin="round"/>
</svg>
