<svg width="56" height="56" viewBox="0 0 56 56" fill="none" xmlns="http://www.w3.org/2000/svg">
<circle cx="28" cy="28" r="28" fill="#FF8E9E"/>
<g clip-path="url(#clip0_24_226)">
<path d="M28 10.367C18.2774 10.367 10.3671 18.2487 10.3671 28C10.3671 37.7513 18.2487 45.633 28 45.633C37.7514 45.633 45.633 37.7513 45.633 28C45.633 18.2487 37.7226 10.367 28 10.367ZM28 41.5483C20.5211 41.5483 14.4517 35.4789 14.4517 28C14.4517 20.5211 20.5211 14.4517 28 14.4517C35.4789 14.4517 41.5484 20.5211 41.5484 28C41.5484 35.4789 35.4789 41.5483 28 41.5483Z" fill="white"/>
<path d="M39.7362 26.7919C39.7362 26.5618 39.7362 26.3316 39.7074 26.1303C39.6499 25.6413 39.4773 25.2098 39.2472 24.7783C38.8445 24.0017 38.2692 23.3113 37.5213 22.8223C37.1186 22.5347 36.6871 22.3333 36.1981 22.1895C35.5653 21.9881 34.9325 21.9306 34.2709 21.9594C33.7819 21.9881 33.2928 22.1032 32.8326 22.2758C32.66 22.3333 32.6313 22.3333 32.545 22.1895C32.1422 21.5566 31.5669 21.0101 30.8766 20.6649C29.6972 20.0609 28.2877 20.0896 27.1084 20.6649C26.7632 20.8375 26.4468 21.0676 26.1591 21.3265C26.0441 21.4416 26.0153 21.4416 25.8715 21.2978C25.8139 21.2402 25.7564 21.1539 25.6989 21.0964C25.2962 20.6937 24.8359 20.3485 24.3182 20.1184C24.0017 19.9746 23.6853 19.8595 23.3401 19.802C23.11 19.7732 22.8799 19.7732 22.621 19.7444H22.1033C22.0457 19.7444 21.9882 19.7732 21.9594 19.7444C21.643 19.7732 21.2978 19.7732 20.9814 19.8883C20.6938 19.9746 20.4349 20.0896 20.176 20.2335C19.313 20.6937 18.6227 21.4128 18.22 22.2758C17.8748 22.9949 17.7022 23.8003 17.7597 24.6057C17.7885 25.0372 17.8748 25.4399 18.0186 25.8426C18.1049 26.044 18.1049 26.0728 17.9036 26.2166C17.2995 26.6481 16.8105 27.2234 16.4941 27.9137C16.379 28.1726 16.264 28.4602 16.2352 28.7479C16.2064 28.9493 16.2064 29.1506 16.2064 29.352V29.7547C16.2352 29.8697 16.2352 29.956 16.2352 30.0711C16.2352 30.5026 16.379 30.9053 16.5516 31.308C16.7817 31.7682 17.0981 32.1997 17.4721 32.5449C18.1912 33.2065 19.1117 33.5804 20.0609 33.5804C20.2911 33.5804 20.4924 33.5804 20.7225 33.5517C20.8664 33.5229 20.8951 33.5517 20.9527 33.6667C21.0102 33.753 21.0389 33.8681 21.0965 33.9544C21.2978 34.3571 21.5567 34.731 21.8731 35.0187C22.1895 35.3351 22.5635 35.6227 22.995 35.7953C23.3114 35.9392 23.6278 36.083 23.973 36.1405C24.2031 36.1693 24.4045 36.1693 24.6346 36.198H25.1523C25.1811 36.1693 25.2099 36.198 25.2386 36.198C25.7564 36.198 26.3029 36.083 26.7632 35.8241C27.6261 35.3926 28.3165 34.731 28.7192 33.8681C28.8055 33.7242 28.8343 33.6955 28.9781 33.753C29.5246 33.9831 30.1287 34.0694 30.7328 34.0119C31.4519 33.9544 32.1135 33.6955 32.66 33.264C33.0052 33.0051 33.3216 32.6599 33.5517 32.286C33.6093 32.1997 33.6956 32.1422 33.8106 32.1709C33.8394 32.1709 33.8681 32.1709 33.8969 32.1709C34.3284 32.2285 34.7311 32.2285 35.1626 32.1997C36.3132 32.0846 37.32 31.5956 38.1541 30.7902C38.6431 30.33 39.0459 29.7547 39.3047 29.1218C39.5061 28.6904 39.6499 28.2301 39.6499 27.7699C39.6499 27.5685 39.6499 27.3959 39.6787 27.1946V26.8206C39.7362 26.8782 39.7362 26.8206 39.7362 26.7919ZM20.9814 28.489C20.6938 28.6328 20.4061 28.6328 20.1185 28.5753C20.0034 28.5465 19.8596 28.489 19.7445 28.4315C19.6582 28.4027 19.6295 28.3164 19.6582 28.2589C19.6582 28.2589 19.6582 28.2589 19.6582 28.2301C19.7445 28 19.7445 28 19.9459 28.1151C20.1185 28.2014 20.3198 28.2589 20.5212 28.2589C20.5787 28.2589 20.6362 28.2589 20.6938 28.2301C20.7801 28.2014 20.8376 28.1151 20.8376 28.0288C20.8376 27.9425 20.8088 27.8562 20.7225 27.8274C20.6362 27.7699 20.5499 27.7411 20.4349 27.7124C20.3198 27.6836 20.2048 27.6261 20.0897 27.5973C19.8883 27.511 19.7445 27.3384 19.7158 27.1083C19.687 26.8494 19.8308 26.6193 20.0609 26.5042C20.2048 26.4467 20.3486 26.3892 20.4924 26.4179C20.7225 26.4179 20.9239 26.4755 21.1252 26.5618C21.1828 26.5905 21.2403 26.6193 21.2115 26.6768C21.1828 26.7631 21.1828 26.8494 21.0965 26.9069C21.0677 26.9357 21.0102 26.9069 20.9814 26.9069C20.8376 26.8494 20.6938 26.8206 20.5499 26.7919C20.4636 26.7631 20.3486 26.7919 20.2623 26.8206C20.1472 26.8494 20.1185 26.9645 20.1472 27.0795C20.176 27.1083 20.2048 27.1658 20.2335 27.1658C20.3198 27.2234 20.3773 27.2521 20.4636 27.2809C20.6362 27.3384 20.8088 27.3959 20.9527 27.4822C21.1252 27.5685 21.2691 27.7411 21.2403 27.9712C21.2691 28.1726 21.2115 28.374 20.9814 28.489ZM23.2826 27.6836C23.2826 27.9425 23.2826 28.1438 23.2826 28.3452C23.2826 28.4315 23.2251 28.489 23.1676 28.5178C22.8224 28.5753 22.4772 28.6328 22.132 28.5753C21.643 28.489 21.4129 28.1438 21.5567 27.6836C21.6142 27.4822 21.7868 27.3384 21.9882 27.2521C22.2183 27.1658 22.4484 27.1658 22.7073 27.1946C22.8511 27.1946 22.8799 27.1946 22.8511 27.022C22.8511 26.9069 22.7361 26.7919 22.621 26.7631C22.3909 26.7056 22.1608 26.7631 21.9307 26.8206C21.7581 26.8782 21.7581 26.8782 21.7005 26.7056C21.643 26.5618 21.6718 26.533 21.8156 26.4755C22.1033 26.3604 22.4484 26.3316 22.7648 26.3892C23.0525 26.4467 23.2826 26.6768 23.3114 26.9645C23.3114 27.2234 23.2826 27.4822 23.2826 27.6836ZM24.1743 28.374C24.1743 28.5465 24.1456 28.5753 23.973 28.5753C23.9442 28.5753 23.8867 28.5753 23.8579 28.5753C23.8004 28.5753 23.7429 28.5465 23.7429 28.489V28.4602C23.7429 28.4315 23.7429 28.374 23.7429 28.3452C23.7429 27.511 23.7429 26.6481 23.7429 25.8139C23.7429 25.7276 23.7141 25.6413 23.8004 25.6125C23.9154 25.5837 24.0017 25.5837 24.1168 25.6125C24.1743 25.6413 24.1743 25.6988 24.1743 25.7851C24.1743 26.2166 24.1743 26.6768 24.1743 27.1083C24.1743 27.4822 24.1743 27.9137 24.1743 28.374ZM26.1304 27.5973H25.7276C25.5551 27.5973 25.3537 27.5973 25.1811 27.5973C25.0373 27.5973 25.0085 27.6548 25.0373 27.7987C25.0948 28.0288 25.2962 28.2014 25.5263 28.2014C25.7276 28.2301 25.9002 28.2014 26.0728 28.1438C26.1879 28.1151 26.2167 28.1151 26.2742 28.2589C26.3317 28.4027 26.3317 28.4602 26.1879 28.489C25.7852 28.6041 25.4112 28.6328 25.0373 28.4602C24.8359 28.374 24.6633 28.1726 24.6058 27.9712C24.4907 27.5973 24.4907 27.2234 24.6921 26.8494C24.8935 26.4755 25.3537 26.3029 25.7852 26.4179C26.1591 26.5042 26.3892 26.8494 26.418 27.2809C26.4468 27.5973 26.4468 27.5973 26.1304 27.5973ZM27.2522 28.5753C27.0796 28.5465 26.9358 28.489 26.792 28.4315C26.7344 28.4027 26.7057 28.3452 26.7057 28.2877C26.7344 28.2014 26.7344 28.1151 26.8207 28.0575C26.8782 28.0288 26.9358 28.0575 26.9645 28.0863C27.1659 28.2014 27.3673 28.2589 27.5974 28.2301C27.6837 28.2301 27.7412 28.2014 27.7987 28.1726C27.9426 28.0575 27.9138 27.8849 27.77 27.7987C27.6549 27.7411 27.5111 27.6836 27.3673 27.6548C27.281 27.6261 27.1947 27.5973 27.1084 27.5398C26.8782 27.4247 26.7632 27.2521 26.7632 26.9932C26.7632 26.7343 26.907 26.533 27.1659 26.4467C27.281 26.3892 27.4248 26.3604 27.5398 26.3604C27.7412 26.3604 27.9713 26.4179 28.1439 26.5042C28.2014 26.533 28.259 26.5618 28.2302 26.6193C28.2302 26.7056 28.2014 26.7919 28.1151 26.8494C28.0864 26.8782 28.0288 26.8494 28.0001 26.8494C27.8563 26.7919 27.7124 26.7631 27.5686 26.7343C27.4823 26.7343 27.3673 26.7343 27.281 26.7919C27.1947 26.8206 27.1371 26.9357 27.1659 27.022C27.1947 27.0508 27.1947 27.0795 27.2522 27.1083C27.3673 27.1946 27.5111 27.2521 27.6549 27.2809C27.8275 27.3384 27.9713 27.3959 28.1151 27.511C28.4603 27.7699 28.3165 28.3164 27.9713 28.489C27.77 28.6041 27.5111 28.6328 27.2522 28.5753ZM29.6109 26.4179C29.6972 26.4179 29.7835 26.4179 29.8698 26.4179C29.9561 26.4179 29.9849 26.4467 29.9849 26.533C29.9849 26.7631 29.9273 26.7919 29.6972 26.7919C29.6685 26.7919 29.6397 26.7919 29.6109 26.7919C29.4959 26.7919 29.4383 26.8206 29.4096 26.9645C29.3233 27.4822 29.237 28 29.1219 28.5178C29.0932 28.7191 29.0356 28.9205 28.9493 29.0931C28.8055 29.3807 28.5754 29.5246 28.259 29.5246C28.1727 29.5246 28.0864 29.5246 27.9713 29.4958C27.9138 29.4958 27.885 29.4383 27.885 29.3807V29.352C27.885 29.2944 27.9138 29.2657 27.9426 29.2081C27.9713 29.1506 28.0288 29.0931 28.0864 29.1218C28.374 29.1506 28.4891 29.0931 28.5754 28.8054C28.6904 28.4315 28.7192 28.0575 28.8055 27.6836C28.863 27.4535 28.8918 27.1946 28.9493 26.9645C28.9781 26.8206 28.9493 26.7919 28.8055 26.7919C28.7192 26.7919 28.6329 26.7919 28.6329 26.6768C28.6329 26.5042 28.6904 26.4179 28.8055 26.3892C28.8343 26.3892 28.863 26.3892 28.8918 26.3892C28.9781 26.4179 29.0356 26.3604 29.0644 26.2741V26.2453C29.0932 26.1303 29.1219 25.9865 29.1794 25.8714C29.3808 25.4687 29.841 25.4112 30.1287 25.4687C30.1862 25.4687 30.2438 25.5262 30.215 25.5837V25.6125C30.1575 25.8139 30.1287 25.8426 29.9561 25.8139C29.6972 25.7851 29.4959 25.9577 29.4959 26.2453C29.5246 26.3892 29.5534 26.4179 29.6109 26.4179ZM31.8258 28.1438C31.6245 28.489 31.3081 28.6328 30.9341 28.6041C30.33 28.5465 30.0136 28.1726 30.0136 27.511C30.0136 27.3384 30.0424 27.1658 30.0999 26.9932C30.2725 26.5905 30.5889 26.3892 30.9916 26.3892C31.3944 26.3604 31.7395 26.6193 31.8834 26.9932C32.056 27.3672 32.0272 27.7699 31.8258 28.1438ZM33.5805 26.5905C33.5517 26.6481 33.5517 26.6768 33.523 26.7056C33.4942 26.7631 33.4367 26.8206 33.3791 26.7919C33.3216 26.7919 33.2353 26.7919 33.1778 26.7919C33.034 26.8206 32.8901 26.9357 32.8614 27.0795C32.8326 27.1946 32.8038 27.3096 32.8038 27.4535C32.8038 27.7699 32.8038 28.0575 32.8038 28.374C32.8038 28.5465 32.7751 28.5753 32.6313 28.5753H32.5737C32.4299 28.5753 32.4011 28.5465 32.4011 28.4027C32.4011 28.1151 32.4011 27.8274 32.4011 27.511C32.4011 27.1946 32.4011 26.9357 32.4011 26.6481C32.4011 26.4755 32.4299 26.4467 32.6025 26.4467C32.6888 26.4467 32.8038 26.4467 32.8614 26.5618C32.8901 26.6193 32.9477 26.5618 32.9764 26.5618C33.149 26.4467 33.3504 26.4179 33.5517 26.4755C33.6093 26.4467 33.6093 26.4755 33.5805 26.5905ZM35.2201 28.5178C34.9612 28.6041 34.6736 28.6041 34.3859 28.5465C34.0983 28.489 33.8681 28.2589 33.7819 28C33.6668 27.6836 33.6668 27.3672 33.7531 27.0508C33.8969 26.6193 34.2421 26.3892 34.7023 26.3892C34.8462 26.3892 35.0187 26.4179 35.1626 26.4467C35.3064 26.4755 35.3064 26.5042 35.2776 26.6481C35.2201 26.8494 35.2201 26.8494 35.0187 26.7919C34.9612 26.7919 34.9037 26.7631 34.8462 26.7631C34.4147 26.7343 34.1558 26.9645 34.1558 27.3959C34.1558 27.4247 34.1558 27.4535 34.1558 27.4822C34.1558 27.5685 34.1558 27.6261 34.1846 27.7124C34.2133 27.9712 34.4147 28.1726 34.6736 28.2014C34.8174 28.2301 34.99 28.2014 35.1338 28.1726C35.2489 28.1438 35.2776 28.1726 35.3352 28.3452C35.3352 28.4315 35.3064 28.489 35.2201 28.5178ZM37.0035 27.5973C36.8885 27.5973 36.7734 27.5973 36.6584 27.5973C36.4858 27.5973 36.3132 27.5973 36.1118 27.5973C35.968 27.5973 35.9105 27.6548 35.968 27.7987C35.9968 28 36.1406 28.1438 36.3132 28.1726C36.5433 28.2301 36.7734 28.2301 37.0035 28.1438C37.0611 28.1151 37.1186 28.0863 37.1761 28.1438C37.2337 28.2301 37.2624 28.3164 37.2624 28.4027C37.2624 28.4602 37.2049 28.4602 37.1761 28.489C36.7734 28.6328 36.3707 28.6328 35.968 28.4602C35.7954 28.374 35.6516 28.2301 35.594 28.0575C35.4215 27.6836 35.4215 27.2521 35.594 26.8782C35.8242 26.4179 36.3995 26.2166 36.8885 26.4467C36.9172 26.4467 36.9172 26.4755 36.946 26.4755C37.2049 26.6193 37.3775 26.9069 37.3775 27.1946C37.3487 27.6548 37.3775 27.5973 37.0035 27.5973Z" fill="white"/>
<path d="M22.8512 27.8849C22.8512 28.2014 22.8512 28.2014 22.5348 28.2301C22.4197 28.2301 22.3047 28.2301 22.1896 28.2014C22.0458 28.1726 21.9595 28.0575 21.9595 27.9137C21.9595 27.7699 22.017 27.6548 22.1321 27.5973C22.3334 27.511 22.5348 27.5398 22.7361 27.5685C22.7937 27.5685 22.8224 27.6261 22.8224 27.6836C22.8512 27.7411 22.8512 27.8274 22.8512 27.8849Z" fill="white"/>
<path d="M25.5263 27.2809C25.4112 27.2809 25.2962 27.2809 25.1523 27.2809C25.0948 27.2809 25.066 27.2521 25.066 27.1946C25.0948 26.9645 25.2674 26.7919 25.4975 26.7919C25.7276 26.7631 25.9578 26.9357 25.9865 27.1658C26.0153 27.2521 25.9865 27.3097 25.8715 27.3097C25.7564 27.2809 25.6413 27.2809 25.5263 27.2809Z" fill="white"/>
<path d="M36.4283 27.2809C36.3132 27.2809 36.1981 27.2809 36.0831 27.2809C36.0256 27.2809 35.968 27.2521 35.9968 27.1946C36.0256 26.9645 36.2269 26.7919 36.457 26.7631C36.6871 26.7344 36.8885 26.9069 36.9173 27.1371C36.946 27.2521 36.9173 27.2809 36.8022 27.2809C36.6584 27.2809 36.5433 27.2809 36.4283 27.2809Z" fill="white"/>
<path d="M30.5026 27.4822C30.5026 27.3097 30.5314 27.1371 30.5889 26.9932C30.6752 26.8207 30.819 26.7631 30.9916 26.7631C31.1642 26.7631 31.3368 26.8207 31.4231 26.9932C31.5669 27.2809 31.5669 27.6548 31.4519 27.9425C31.3943 28.1151 31.2217 28.2301 31.0491 28.2014C30.8478 28.2014 30.704 28.1438 30.5889 27.9425C30.5026 27.8274 30.4738 27.6548 30.5026 27.4822Z" fill="white"/>
</g>
<defs>
<clipPath id="clip0_24_226">
<rect width="43.1475" height="43.1475" fill="white" transform="translate(6.42627 6.42624)"/>
</clipPath>
</defs>
</svg>
